<svg xmlns="http://www.w3.org/2000/svg" enable-background="new 0 0 512 512" viewBox="0 0 512 512"><rect width="155.886" height="82.951" x="178.057" y="357.836" fill="#d1d1d6" fill-rule="evenodd" clip-rule="evenodd"/><rect width="77.943" height="82.951" x="256" y="357.836" fill="#b1b1b5" fill-rule="evenodd" clip-rule="evenodd"/><path fill="#eceff1" fill-rule="evenodd" d="M46.131,30.44H465.87c20.972,0,38.13,17.159,38.13,38.131v262.32c0,20.972-17.159,38.131-38.13,38.131
				H46.131C25.159,369.021,8,351.862,8,330.89V68.571C8,47.599,25.159,30.44,46.131,30.44z" clip-rule="evenodd"/><path fill="#d1d1d6" fill-rule="evenodd" d="M256,30.44h209.87c20.972,0,38.13,17.159,38.13,38.131v262.32c0,20.972-17.159,38.131-38.13,38.131H256
				V30.44z" clip-rule="evenodd"/><path fill="#837683" fill-rule="evenodd" d="M45.174,62.326h421.652c2.909,0,5.288,2.38,5.288,5.288v237.177H39.886V67.614
				C39.886,64.705,42.266,62.326,45.174,62.326z" clip-rule="evenodd"/><path fill="#685e68" fill-rule="evenodd" d="M256,62.326h210.826c2.909,0,5.288,2.38,5.288,5.288v237.177H256V62.326z" clip-rule="evenodd"/><path fill="#eceff1" fill-rule="evenodd" d="M97.5,481.564h317.001c5.508,0,10-4.492,10-10v-15.981c0-14.289-14.632-25.981-32.517-25.981H120.017
				c-17.885,0-32.517,11.691-32.517,25.981v15.981C87.5,477.072,91.992,481.564,97.5,481.564z" clip-rule="evenodd"/><path fill="#d1d1d6" fill-rule="evenodd" d="M256,481.564h158.5c5.508,0,10-4.492,10-10v-15.981c0-14.289-14.632-25.981-32.517-25.981H256V481.564z" clip-rule="evenodd"/><path fill="#fe646f" fill-rule="evenodd" d="M248.191,214.265h17.536c2.754,0,5,2.246,5,5v42.826c0,2.754-2.246,5-5,5h-17.536c-2.754,0-5-2.246-5-5
				v-42.826C243.192,216.511,245.438,214.265,248.191,214.265z" clip-rule="evenodd"/><path fill="#fd4755" fill-rule="evenodd" d="M256.959,214.265h8.768c2.754,0,5,2.246,5,5v42.826c0,2.754-2.246,5-5,5h-8.768V214.265z" clip-rule="evenodd"/><path fill="#ffe177" fill-rule="evenodd" d="M316.856,186.588c-5.845,0-11.691,0-17.536,0c-2.754,0-5,2.246-5,5c0,24.895,0,45.608,0,70.503
				c0,2.754,2.246,5,5,5c5.846,0,11.691,0,17.536,0c2.754,0,5-2.246,5-5c0-24.895,0-45.608,0-70.503
				C321.856,188.834,319.61,186.588,316.856,186.588z" clip-rule="evenodd"/><path fill="#ffd064" fill-rule="evenodd" d="M316.856,186.588h-8.768v80.503h8.768c2.754,0,5-2.246,5-5c0-24.895,0-45.608,0-70.503
				C321.856,188.834,319.61,186.588,316.856,186.588z" clip-rule="evenodd"/><path fill="#6cf5c2" fill-rule="evenodd" d="M367.986,157.687H350.45c-2.754,0-5,2.246-5,5v99.404c0,2.754,2.246,5,5,5h17.536c2.754,0,5-2.246,5-5
				v-99.404C372.985,159.933,370.739,157.687,367.986,157.687z" clip-rule="evenodd"/><path fill="#00e499" fill-rule="evenodd" d="M367.986,157.687h-8.768v109.403h8.768c2.754,0,5-2.246,5-5v-99.404
				C372.985,159.933,370.739,157.687,367.986,157.687z" clip-rule="evenodd"/><path fill="#8ac9fe" fill-rule="evenodd" d="M401.577,131.689h17.536c2.754,0,5,2.246,5,5v125.402c0,2.754-2.246,5-5,5h-17.536c-2.754,0-5-2.246-5-5
				V136.689C396.577,133.935,398.823,131.689,401.577,131.689z" clip-rule="evenodd"/><path fill="#60b7ff" fill-rule="evenodd" d="M410.345,131.689h8.768c2.754,0,5,2.246,5,5v125.402c0,2.754-2.246,5-5,5h-8.768V131.689z" clip-rule="evenodd"/><g><circle cx="119.887" cy="142.327" r="50" fill="#ffd064" fill-rule="evenodd" clip-rule="evenodd"/><circle cx="119.887" cy="142.327" r="40.269" fill="#ffe177" fill-rule="evenodd" clip-rule="evenodd"/><path fill="#fd4755" fill-rule="evenodd" d="M119.89,142.331l49.997,0.013c0-0.006,0-0.012,0-0.018c0-27.614-22.386-50-50-50v50L119.89,142.331z" clip-rule="evenodd"/><path fill="#fe646f" fill-rule="evenodd" d="M119.89,142.331l40.266,0.01l0-0.015c0-22.24-18.029-40.269-40.269-40.269l0,40.269L119.89,142.331z" clip-rule="evenodd"/><path fill="#60b7ff" fill-rule="evenodd" d="M169.887,142.344l-49.997-0.013l25.339,43.107C159.981,176.748,169.881,160.703,169.887,142.344z" clip-rule="evenodd"/><path fill="#8ac9fe" fill-rule="evenodd" d="M160.156,142.342l-40.266-0.01l20.406,34.714C152.176,170.047,160.15,157.127,160.156,142.342z" clip-rule="evenodd"/></g><path fill-rule="evenodd" d="M111.886,101.101v41.23c0,1.421,0.382,2.819,1.104,4.05l20.892,35.54c-4.382,1.55-9.09,2.41-13.995,2.41
		c-23.156,0-41.996-18.85-41.996-42.001C77.89,121.903,92.541,104.853,111.886,101.101L111.886,101.101z M161.113,134.342
		c-3.241-16.76-16.467-30-33.227-33.241l0.004,33.241C136.943,134.342,151.707,134.342,161.113,134.342L161.113,134.342z
		 M147.665,173.793c6.802-6.011,11.651-14.19,13.449-23.451c-4.58,0-10.401,0-16.213,0c-3.792,0-7.58,0-11.024,0L147.665,173.793
		L147.665,173.793z M119.886,200.332c31.982,0,58.001-26.02,58.001-58c0-31.99-26.02-58-58.001-58
		c-31.982,0-57.997,26.011-57.997,58C61.889,174.312,87.904,200.332,119.886,200.332L119.886,200.332z M237.856,172.711
		c-2.108-3.87-0.679-8.708,3.184-10.809l109.578-59.841l-9.958-1.889c-4.34-0.81-7.189-4.98-6.382-9.311
		c0.811-4.339,4.981-7.19,9.312-6.379l31.869,6.049c4.33,0.811,7.189,4.98,6.382,9.311c-0.104,0.54-0.26,1.049-0.453,1.529
		l0.014,0.009l-12.232,30.04c-1.66,4.091-6.311,6.061-10.401,4.412c-4.09-1.661-6.071-6.32-4.41-10.411l3.792-9.311l-109.484,59.791
		C244.8,178.001,239.96,176.582,237.856,172.711L237.856,172.711z M364.982,259.091v-93.399h-11.533v93.399H364.982L364.982,259.091
		z M367.992,149.691h-17.543c-7.17,0-13,5.83-13,12.991v99.411c0,7.17,5.83,13,13,13h17.543c7.161,0,12.986-5.83,12.986-13v-99.411
		C380.978,155.521,375.152,149.691,367.992,149.691L367.992,149.691z M251.191,222.263h11.533v36.828h-11.533V222.263
		L251.191,222.263z M248.191,275.093h17.538c7.165,0,13-5.83,13-13v-42.832c0-7.169-5.835-12.999-13-12.999h-17.538
		c-7.165,0-13.001,5.83-13.001,12.999v42.832C235.191,269.262,241.026,275.093,248.191,275.093L248.191,275.093z M404.583,139.691
		h11.529v119.4h-11.529V139.691L404.583,139.691z M401.582,275.093h17.529c7.17,0,13-5.83,13-13V136.691
		c0-7.17-5.83-12.999-13-12.999h-17.529c-7.17,0-13.005,5.83-13.005,12.999v125.401
		C388.577,269.262,394.412,275.093,401.582,275.093L401.582,275.093z M313.863,259.091H302.32v-64.5h11.543V259.091L313.863,259.091
		z M316.863,178.592H299.32c-7.17,0-13,5.828-13,13v70.5c0,3.47,1.354,6.729,3.811,9.189c2.458,2.46,5.717,3.811,9.189,3.811h17.543
		c7.156,0,12.996-5.83,12.996-13v-70.5C329.859,184.421,324.019,178.592,316.863,178.592L316.863,178.592z M165.01,257.641
		c0,4.421-3.581,8-8,8H82.762c-4.42,0-8-3.58-8-8c0-4.41,3.58-7.999,8-7.999h74.247C161.429,249.642,165.01,253.232,165.01,257.641
		L165.01,257.641z M194.251,267.092V92.332c0-4.42,3.58-8.001,8-8.001c4.415,0,8,3.58,8,8.001v174.76c0,4.421-3.585,8.001-8,8.001
		C197.831,275.093,194.251,271.512,194.251,267.092L194.251,267.092z M165.01,225.021c0,4.421-3.581,8.001-8,8.001H82.762
		c-4.42,0-8-3.58-8-8.001c0-4.418,3.58-7.999,8-7.999h74.247C161.429,217.022,165.01,220.603,165.01,225.021L165.01,225.021z
		 M496,330.893V68.571c0-16.609-13.519-30.129-30.128-30.129H46.129c-16.614,0-30.128,13.52-30.128,30.129v262.321
		c0,16.609,13.514,30.129,30.128,30.129h419.743C482.481,361.021,496,347.502,496,330.893L496,330.893z M325.939,421.601H186.057
		v-44.578h139.881V421.601L325.939,421.601z M416.503,455.583v15.979c0,1.089-0.92,1.999-2.005,1.999H97.499
		c-1.085,0-2-0.91-2-1.999v-15.979c0-9.751,11.227-17.981,24.52-17.981h271.965C405.271,437.602,416.503,445.832,416.503,455.583
		L416.503,455.583z M465.872,22.441H46.129c-25.434,0-46.129,20.691-46.129,46.13v262.321c0,25.439,20.694,46.13,46.129,46.13
		h123.928v44.578h-50.039c-22.345,0-40.52,15.241-40.52,33.982v15.979c0,9.93,8.076,18.001,18.001,18.001h316.999
		c9.934,0,18-8.07,18-18.001v-15.979c0-18.742-18.18-33.982-40.515-33.982h-50.044v-44.578h123.933
		c25.439,0,46.128-20.691,46.128-46.13V68.571C512,43.132,491.311,22.441,465.872,22.441L465.872,22.441z M464.112,296.791V70.322
		H47.884v226.469H464.112L464.112,296.791z M466.829,54.322H45.172c-7.326,0-13.283,5.97-13.283,13.289v237.18
		c0,4.42,3.58,8,7.996,8h432.229c4.415,0,7.995-3.58,7.995-8V67.612C480.108,60.293,474.15,54.322,466.829,54.322z" clip-rule="evenodd"/></svg>