<svg xmlns="http://www.w3.org/2000/svg" enable-background="new 0 0 64 64" viewBox="0 0 64 64"><path fill="#6c6ca6" d="M39.69 33.7c-.1-.86-.52-1.64-1.2-2.18-.69-.54-1.53-.79-2.4-.69-.86.09-1.64.52-2.18 1.2-.81 1.02-.91 2.38-.36 3.48l-3.53 3.38c-1.36-.75-3.1-.44-4.1.81-.1.13-.17.26-.25.39l-4.31-1c-.07-.87-.47-1.72-1.2-2.3-.68-.54-1.53-.8-2.4-.7-.86.1-1.64.53-2.18 1.21-.54.68-.79 1.52-.69 2.39.1.87.52 1.64 1.2 2.18.58.47 1.29.72 2.03.72.12 0 .24-.01.37-.02.86-.1 1.64-.52 2.18-1.2.1-.13.17-.26.24-.39l4.31 1c.01.04 0 .08 0 .12.1.86.52 1.64 1.21 2.18.58.47 1.29.71 2.02.71.13 0 .25 0 .37-.02.87-.1 1.64-.52 2.18-1.2.81-1.02.91-2.39.37-3.48l3.52-3.38c.48.27 1.02.41 1.56.41.95 0 1.9-.42 2.54-1.22C39.53 35.41 39.79 34.56 39.69 33.7zM19.16 40.16c-.22.27-.53.45-.88.48-.36.04-.7-.06-.97-.28-.27-.22-.45-.53-.48-.88-.04-.35.06-.69.27-.97.22-.27.53-.45.88-.48.06 0 .11-.01.16-.01.29 0 .58.11.81.29.28.22.45.53.48.88C19.47 39.54 19.37 39.88 19.16 40.16zM29.49 42.56c-.22.28-.53.46-.88.49-.35.04-.69-.07-.97-.28-.27-.22-.45-.53-.48-.88-.04-.35.06-.7.28-.97.22-.27.53-.45.88-.48.05-.01.1-.01.15-.01.3 0 .58.1.82.29C29.85 41.16 29.94 42 29.49 42.56zM37.48 34.88c-.22.27-.53.45-.88.48-.35.04-.69-.06-.97-.28-.56-.45-.66-1.28-.2-1.85.22-.27.53-.45.88-.48.05 0 .1-.01.15-.01.3 0 .58.11.82.29.27.22.45.53.48.88C37.8 34.26 37.7 34.61 37.48 34.88zM51.25 10.64c-2.24-.87-4.69-.82-6.89.15-2.2.97-3.89 2.74-4.76 4.98-.87 2.24-.81 4.68.16 6.88s2.73 3.89 4.97 4.76c1.01.4 2.05.58 3.07.61h.04c.01 0 .01 0 .02 0h.12c3.57 0 6.94-2.14 8.36-5.63 0-.02.01-.03.02-.04 0-.03.02-.04.03-.07C58.17 17.66 55.87 12.43 51.25 10.64zM48.51 26.06c-.36-1.11-.39-2.23-.06-3.14.64.12 1.3-.02 1.85-.39.56-.37.94-.93 1.09-1.57.97.05 2 .51 2.88 1.27C53.14 24.47 50.92 25.87 48.51 26.06zM54.93 20.27c-1.44-1.01-3.13-1.45-4.64-1.17-.52.1-.87.6-.78 1.12.05.28-.06.55-.27.7-.21.14-.5.14-.73-.02-.21-.15-.48-.19-.73-.14-.26.05-.48.2-.62.42-.84 1.29-1.08 3.02-.71 4.73-.35-.08-.7-.16-1.04-.3-1.76-.69-3.14-2.01-3.9-3.74-.77-1.73-.8-3.65-.13-5.4.69-1.76 2.02-3.14 3.74-3.91 1.73-.76 3.65-.8 5.4-.12C53.74 13.68 55.52 17.02 54.93 20.27z"/><path fill="#6c6ca6" d="M49.38,16.46L49.38,16.46c-0.8-1.19-2.4-1.51-3.59-0.72c-1.18,0.79-1.51,2.4-0.72,3.58
		c0.49,0.75,1.32,1.15,2.15,1.15c0.49,0,0.99-0.15,1.44-0.44C49.84,19.25,50.16,17.64,49.38,16.46z M47.58,18.42
		c-0.3,0.19-0.7,0.11-0.9-0.18c-0.09-0.15-0.13-0.31-0.09-0.48c0.03-0.16,0.13-0.31,0.27-0.41c0.11-0.08,0.23-0.11,0.36-0.11
		c0.2,0,0.41,0.1,0.53,0.28C47.95,17.82,47.87,18.22,47.58,18.42z"/><path fill="#6c6ca6" d="M63.09,35.62l-6.45-7.88c1.77-1.73,2.99-3.94,3.51-6.42c0.69-3.3,0.06-6.67-1.79-9.5
		c-1.84-2.82-4.68-4.76-7.98-5.45c-3.31-0.69-6.68-0.06-9.5,1.79c-1.49,0.97-2.71,2.21-3.63,3.62H5.37C2.4,11.77,0,14.18,0,17.14
		v3.71c0,0.54,0.43,0.97,0.97,0.97h7.83L8.69,53.01c-0.01,2.67,2.09,4.86,4.74,4.89h0.81c0.05,0,0.1,0.01,0.15,0.01l30.35-0.04
		c0.13,0,0.24,0,0.43-0.02c2.41-0.21,4.29-2.28,4.29-4.69V48.9c0-0.53-0.44-0.97-0.97-0.97h-2.43V31.22
		c0.58,0.08,1.16,0.13,1.76,0.13c1.38,0,2.76-0.23,4.1-0.69l5.3,9.06c0.48,0.91,1.34,1.57,2.35,1.8c0.27,0.07,0.55,0.1,0.82,0.1
		c0.75,0,1.47-0.22,2.09-0.67c0.84-0.6,1.39-1.53,1.5-2.56C64.09,37.36,63.75,36.33,63.09,35.62z M8.8,19.89H1.94v-2.74
		c0-1.89,1.53-3.43,3.41-3.43c0.01,0,0.01,0,0.02,0h0.04c1.87,0.02,3.39,1.55,3.39,3.43V19.89z M17.75,48.9v3.27
		c0,2.09-1.7,3.79-3.79,3.79H13.4c-1.53-0.01-2.78-1.34-2.77-2.95l0.12-32.15v-3.72c0-1.31-0.47-2.5-1.24-3.43h26.7
		c-1.62,3.76-1.4,8.24,1.01,11.93c1.69,2.58,4.17,4.32,6.9,5.15v17.14h-25.4C18.18,47.93,17.75,48.37,17.75,48.9z M47.52,49.87v3.29
		c0,1.43-1.11,2.64-2.53,2.76c-0.09,0.01-0.16,0.01-0.24,0.01l-26.49,0.03c0.89-1.01,1.44-2.34,1.44-3.79v-2.3H47.52z M38.83,24.57
		c-3.22-4.94-1.83-11.57,3.1-14.8c1.76-1.15,3.77-1.75,5.83-1.75c0.74,0,1.48,0.08,2.22,0.23c2.79,0.58,5.2,2.22,6.76,4.62
		c1.15,1.76,1.75,3.77,1.75,5.83c0,0.74-0.08,1.47-0.23,2.21c-0.58,2.79-2.22,5.2-4.62,6.76C48.7,30.9,42.06,29.51,38.83,24.57z
		 M61.35,39.37c-0.4,0.28-0.87,0.38-1.35,0.26c-0.48-0.11-0.85-0.4-1.11-0.86l-5.2-8.89c0.34-0.17,0.67-0.37,0.99-0.57
		c0.16-0.11,0.3-0.22,0.46-0.33l6.47,7.91c0.33,0.36,0.48,0.81,0.44,1.3C61.99,38.67,61.75,39.09,61.35,39.37z"/><path fill="#ffdc7d" d="M62.05,38.19c-0.06,0.48-0.3,0.9-0.7,1.18c-0.4,0.28-0.87,0.38-1.35,0.26c-0.48-0.11-0.85-0.4-1.11-0.86
		l-5.2-8.89c0.34-0.17,0.67-0.37,0.99-0.57c0.16-0.11,0.3-0.22,0.46-0.33l6.47,7.91C61.94,37.25,62.1,37.7,62.05,38.19z"/><path fill="#fee6ab" d="M56.74,12.88c-1.56-2.4-3.97-4.03-6.76-4.62c-0.74-0.16-1.48-0.23-2.22-0.23c-2.06,0-4.06,0.59-5.83,1.75
		c-4.94,3.23-6.32,9.86-3.1,14.8c3.23,4.94,9.87,6.33,14.81,3.1c2.4-1.56,4.03-3.97,4.62-6.76c0.16-0.74,0.23-1.47,0.23-2.21
		C58.48,16.65,57.89,14.63,56.74,12.88z M56.38,22.28c-0.01,0.03-0.03,0.04-0.03,0.07c-0.01,0.01-0.02,0.02-0.02,0.04
		c-1.42,3.49-4.79,5.63-8.36,5.63h-0.12c-0.01,0-0.01,0-0.02,0H47.8c-1.03-0.03-2.07-0.21-3.07-0.61c-2.24-0.87-4-2.56-4.97-4.76
		s-1.03-4.64-0.16-6.88c0.87-2.24,2.56-4.01,4.76-4.98c2.2-0.97,4.65-1.02,6.89-0.15C55.87,12.43,58.17,17.66,56.38,22.28z"/><path fill="#e6ecf5" d="M50.54,12.44c-1.76-0.68-3.68-0.64-5.4,0.12c-1.73,0.77-3.05,2.15-3.74,3.91c-0.68,1.76-0.64,3.68,0.13,5.4
		c0.76,1.74,2.14,3.05,3.9,3.74c0.34,0.14,0.69,0.22,1.04,0.3c-0.37-1.72-0.14-3.44,0.71-4.73c0.15-0.21,0.36-0.37,0.62-0.42
		c0.25-0.06,0.51-0.01,0.73,0.14c0.22,0.16,0.51,0.16,0.73,0.02c0.21-0.15,0.32-0.42,0.27-0.7c-0.1-0.52,0.25-1.03,0.78-1.12
		c1.51-0.28,3.2,0.16,4.64,1.17C55.52,17.02,53.74,13.68,50.54,12.44z M48.66,20.03c-0.45,0.29-0.94,0.44-1.44,0.44
		c-0.83,0-1.66-0.41-2.15-1.15c-0.8-1.18-0.47-2.79,0.72-3.58c1.18-0.8,2.79-0.48,3.59,0.71v0.01
		C50.16,17.64,49.84,19.25,48.66,20.03z"/><path fill="#e6ecf5" d="M54.27,22.23c-1.13,2.24-3.36,3.65-5.76,3.83c-0.36-1.11-0.39-2.23-0.06-3.14c0.64,0.12,1.3-0.02,1.85-0.39
		c0.56-0.37,0.94-0.93,1.09-1.57C52.36,21,53.39,21.47,54.27,22.23z"/><path fill="#fee6ab" d="M47.58,18.42c-0.3,0.19-0.7,0.11-0.9-0.18c-0.09-0.15-0.13-0.31-0.09-0.48c0.03-0.16,0.13-0.31,0.27-0.41
		c0.11-0.08,0.23-0.11,0.36-0.11c0.2,0,0.41,0.1,0.53,0.28C47.95,17.82,47.87,18.22,47.58,18.42z"/><path fill="#c8d5e4" d="M8.8 17.14v2.74H1.94v-2.74c0-1.89 1.53-3.43 3.41-3.43.01 0 .01 0 .02 0h.04C7.28 13.73 8.8 15.26 8.8 17.14zM47.52 49.87v3.29c0 1.43-1.11 2.64-2.53 2.76-.09.01-.16.01-.24.01l-26.49.03c.89-1.01 1.44-2.34 1.44-3.79v-2.3H47.52z"/><path fill="#e6ecf5" d="M37.21,25.64c-2.4-3.68-2.63-8.16-1.01-11.93H9.5c0.78,0.93,1.24,2.12,1.24,3.43v3.72l-0.12,32.15
		c-0.01,1.61,1.24,2.94,2.77,2.95h0.55c2.09,0,3.79-1.7,3.79-3.79V48.9c0-0.53,0.44-0.97,0.97-0.97h25.4V30.79
		C41.38,29.95,38.89,28.22,37.21,25.64z M38.99,36.09c-0.64,0.8-1.59,1.22-2.54,1.22c-0.54,0-1.08-0.14-1.56-0.41l-3.52,3.38
		c0.54,1.1,0.45,2.46-0.37,3.48c-0.54,0.68-1.31,1.11-2.18,1.2c-0.12,0.02-0.24,0.02-0.37,0.02c-0.73,0-1.43-0.24-2.02-0.71
		c-0.69-0.54-1.12-1.32-1.21-2.18c0-0.04,0.01-0.08,0-0.12l-4.31-1c-0.07,0.13-0.15,0.26-0.24,0.39c-0.54,0.68-1.32,1.11-2.18,1.2
		c-0.13,0.01-0.25,0.02-0.37,0.02c-0.74,0-1.44-0.25-2.03-0.72c-0.68-0.54-1.11-1.31-1.2-2.18c-0.1-0.86,0.15-1.71,0.69-2.39
		c0.54-0.68,1.32-1.12,2.18-1.21c0.86-0.1,1.72,0.16,2.4,0.7c0.74,0.58,1.13,1.43,1.2,2.3l4.31,1c0.08-0.13,0.16-0.26,0.25-0.39
		c1-1.25,2.74-1.56,4.1-0.81l3.53-3.38c-0.55-1.11-0.46-2.46,0.36-3.48c0.54-0.68,1.32-1.12,2.18-1.2c0.86-0.1,1.71,0.15,2.4,0.69
		c0.68,0.54,1.11,1.32,1.2,2.18C39.79,34.56,39.53,35.41,38.99,36.09z"/><path fill="#f59393" d="M19.43 39.2c.04.35-.06.69-.27.97-.22.27-.53.45-.88.48-.36.04-.7-.06-.97-.28-.27-.22-.45-.53-.48-.88-.04-.35.06-.69.27-.97.22-.27.53-.45.88-.48.06 0 .11-.01.16-.01.29 0 .58.11.81.29C19.23 38.54 19.39 38.85 19.43 39.2zM29.49 42.56c-.22.28-.53.46-.88.49-.35.04-.69-.07-.97-.28-.27-.22-.45-.53-.48-.88-.04-.35.06-.7.28-.97.22-.27.53-.45.88-.48.05-.01.1-.01.15-.01.3 0 .58.1.82.29C29.85 41.16 29.94 42 29.49 42.56zM37.76 33.91c.04.35-.06.7-.28.97s-.53.45-.88.48c-.35.04-.69-.06-.97-.28-.56-.45-.66-1.28-.2-1.85.22-.27.53-.45.88-.48.05 0 .1-.01.15-.01.3 0 .58.11.82.29C37.55 33.25 37.72 33.56 37.76 33.91z"/></svg>