<svg xmlns="http://www.w3.org/2000/svg" enable-background="new 0 0 67 67" viewBox="0 0 67 67"><path fill="#F9D893" d="M32.5,23.8L5.9,39.1c0.7-4,1.2-8.3,2.5-9.1c2.1-1.2,0.9,4,3,2.8c2.7-1.6,3.1-12.2,5.1-12.4
			c0.5,0,0.5,0.7,0.5,1.3c-0.2,5.8,2,6.1,2.6,2.6c0.3-1.5,1.2-2.2,1.6-1.2c0.3,0.7,0.4,1.3,1.3,0.8c1.2-0.7,1.6-2,4.7-8.9
			c0.2-0.4,0.4-0.7,0.7-0.8c0.4-0.2,0.7-0.2,0.8,0.3C28.8,14.9,30.2,23.3,32.5,23.8z"/><path fill="#662DDC" d="M7.7 20.5c0 .3-.2.6-.4.8-.2.1-.4 0-.4-.3 0-.3.2-.6.4-.8C7.5 20.1 7.7 20.2 7.7 20.5zM9.3 19.6c0 .3-.2.6-.4.8-.2.1-.4 0-.4-.3 0-.3.2-.6.4-.8C9.1 19.2 9.3 19.3 9.3 19.6zM10.9 18.7c0 .3-.2.6-.4.8-.2.1-.4 0-.4-.3 0-.3.2-.6.4-.8C10.7 18.3 10.9 18.4 10.9 18.7z"/><path fill="#F4F4F4" d="M61.8,39.6l-34,19.8c-0.4,0.2-1,0.2-1.4,0L8.4,49l48.3-13.2l5.1,2.9C62.2,39,62.2,39.3,61.8,39.6z"/><path fill="#EF473E" d="M15.5,55.3c-0.6,0.4-1.7,0.4-2.3,0c-0.6-0.4-0.6-1,0-1.3c0.6-0.4,1.7-0.4,2.3,0
			C16.1,54.3,16.1,54.9,15.5,55.3z"/><path fill="#662DDC" d="M54.1 34.4c.1.1.1.1 0 .2-.1.1-.3.1-.4 0l-.3-.2c-.1-.1-.1-.1 0-.2.1-.1.3-.1.4 0L54.1 34.4zM53.2 33.9c.1.1.1.1 0 .2-.1.1-.3.1-.4 0l-1.6-.9c-.1-.1-.1-.1 0-.2.1-.1.3-.1.4 0L53.2 33.9z"/><path fill="#FFF" d="M65.4,62.6c0,0.4-0.3,0.8-0.8,1.1c-0.5,0.3-1.2,0.4-1.8,0.4c-0.7,0-1.3-0.1-1.8-0.4L49.4,57l0-2.1
			l-1.4-0.8v0.7C42.1,58,32.8,58,27,54.6c-3-1.7-4.4-4-4.4-6.2l0-3c0-2.2,1.5-4.4,4.4-6.1c5.8-3.4,15.3-3.4,21.2,0
			c3,1.7,4.5,4,4.5,6.2l0,2.2c0,1.5-0.6,2.9-1.9,4.2l1.3,0.8l1.1-0.6l11.7,6.7c0.5,0.3,0.8,0.7,0.7,1.1c0,0,0,0,0,0v0.1L65.4,62.6z"/><polygon fill="#FFF" points="52.1 52.8 49.8 51.8 47.9 52.9 50.2 54"/><polygon fill="#FFF" points="50.2 54 47.9 52.9 47.9 54.1 49.3 54.9 49.3 54.4"/><polygon fill="#FFF" points="45.2 30.6 45.2 43.5 43.3 44.6 41.4 43.5 41.4 30.6 43.3 29.5"/><polygon fill="#D9DADF" points="45.2 30.6 45.2 43.5 43.3 44.6 43.3 31.7"/><polygon fill="#BCBCBE" points="43.3 31.7 43.3 44.6 41.4 43.5 41.4 30.6"/><polygon fill="#D9DADF" points="39.9 35.9 39.9 46.5 38 47.6 38 37"/><polygon fill="#BCBCBE" points="38 37 38 47.6 36.1 46.5 36.1 35.9"/><polygon fill="#FFF" points="34.6 41.1 34.6 49.6 32.7 50.7 30.8 49.6 30.8 41.1 32.7 40"/><polygon fill="#D9DADF" points="34.6 41.1 34.6 49.6 32.7 50.7 32.7 42.2"/><polygon fill="#BCBCBE" points="32.7 42.2 32.7 50.7 30.8 49.6 30.8 41.1"/><polygon fill="#FFF" points="38 37 39.9 35.9 38 34.8 36.1 35.9"/><path fill="#979AAB" d="M2,41.2l2,1.2c0,0,0,0,0,0c0.1,0.1,0.3,0.1,0.5,0.1c0.2,0,0.5-0.1,0.7-0.2l27.9-16.1
				c0.8-0.5,1.5-1.6,1.5-2.6l0-20.3c0-0.5-0.2-0.9-0.5-1.1c0,0,0,0-0.1,0l-2-1.2c-0.3-0.2-0.8-0.2-1.2,0.1L2.9,17.2
				c-0.8,0.5-1.5,1.6-1.5,2.6l0,20.3C1.5,40.6,1.7,41,2,41.2z M2.3,40.8C2.1,40.7,2,40.4,2,40.1l0-20.3c0-0.3,0.1-0.5,0.2-0.8
				l1.7,0.8c-0.2,0.3-0.3,0.8-0.3,1.2l0,10.2l0,10.1c0,0.1,0,0.1,0,0.2L2.3,40.8z M32.9,25.7L5,41.8c-0.4,0.2-0.8,0.2-0.9-0.1
				c0,0,0-0.1,0-0.1c0,0,0-0.1,0-0.1c0,0,0,0,0-0.1v-0.1l0-10.1L4,21c0-0.8,0.6-1.8,1.2-2.1L33.1,2.7c0.2-0.1,0.5-0.2,0.7-0.1h0
				C34,2.7,34.1,3,34.1,3.3l0,20.3C34.2,24.4,33.6,25.3,32.9,25.7z M3.2,17.7L31.1,1.6c0.2-0.1,0.3-0.2,0.5-0.2c0.1,0,0.2,0,0.2,0.1
				l1.3,0.7c-0.1,0-0.1,0.1-0.2,0.1L5,18.4C4.6,18.6,4.3,19,4,19.3l-1.7-0.8c0,0,0,0,0,0C2.6,18.2,2.9,17.9,3.2,17.7z"/><path fill="#979AAB" d="M32.3 4.8L5.9 20.1c-.2.1-.5.6-.5.9l0 18.5c0 .1 0 .2.1.2 0 0 .1 0 .1 0 0 0 .1 0 .1 0l26.4-15.2c.2-.2.5-.6.5-.9l0-18.5C32.7 4.9 32.5 4.7 32.3 4.8zM6.2 20.5l26-15 0 1.9v0L5.9 22.4V21C5.9 20.9 6.1 20.6 6.2 20.5zM32 24.1l-26 15 0-16.1v0l0 0L32.2 8v0l0 15.6C32.2 23.7 32.1 24 32 24.1zM65.7 59.9L65.7 59.9c0-.5-.3-1-.9-1.3l-11.6-6.7c-.1-.1-.2-.1-.3 0l-1 .5L51 52.1c1-1.5 1.8-3.3 1.8-4.3v-.5l11.9-6.9c.6-.4.9-.8.9-1.4 0-.5-.3-1-1-1.4L44.4 25.9c-1.1-.7-3.1-.7-4.2 0L2.1 48c-.6.4-.9.8-.9 1.4 0 .5.3 1 1 1.4l20.3 11.8c.5.3 1.2.5 1.9.5v2.9c0 .1.1.3.3.3s.3-.1.3-.3V63c.7 0 1.3-.2 1.8-.5l8.9-5.2h0c.7.1 1.4.1 2 .1 3.7 0 7.7-.8 10.9-2.7l.6.3 0 1.9c0 .1 0 .2.1.2l11.6 6.7c1.7 1 4.9.3 4.9-1.3L65.7 59.9zM52.2 53.1c.1-.1.1-.1.1-.2l.7-.4L64.5 59c.4.2.6.5.6.8 0 1.2-2.8 1.6-4 .8L50 54.4l.3-.2L52.2 53.1zM51.4 52.8L50 53.6h0c-.3-.1-1.6-.8-1.5-.7l1.4-.8C50 52.1 51.5 52.8 51.4 52.8zM52.3 45.5c0 2.6-2 4.5-4.2 5.9-2.8 1.6-6.5 2.5-10.5 2.5-6.1 0-14.8-2.8-14.8-8.5 0 0 0 0 0 0 0 0 0 0 0 0 0-2.2 1.5-4.3 4.2-5.9 2.4-1.4 5.5-2.2 8.8-2.4v1.2C30.3 38.7 23.6 42 25.5 47c0 0 0 0 0 0 .5 1.5 2.1 2.8 3.4 3.6 2.3 1.3 5.4 2.1 8.7 2.1 3.3 0 6.4-.8 8.7-2.1 1.2-.7 2.1-1.5 2.7-2.4.1-.2.2-.3.3-.5 1.4-2.5.6-5.8-3.9-8v-1.5c.9.3 1.8.7 2.5 1.2C50.8 41.1 52.3 43.3 52.3 45.5 52.3 45.5 52.3 45.5 52.3 45.5zM26.9 54.8c1.4.8 3.1 1.5 4.9 1.9l-4.1 2.4c-.3.2-.8.2-1.1 0L7.5 48.2C7.4 48.1 7.4 48 7.4 48c0 0 .1-.1.2-.2L41.6 28c.1-.1.3-.1.6-.1.2 0 .4 0 .6.1l7.4 4.2c.1.1.2.1.2.2s-.1.1-.2.2c-.3.1-.4.4-.4.6 0 .2.2.5.4.6l2.5 1.5c.4.3 1.2.3 1.6 0 .3-.2.8-.2 1.1 0l6.2 3.6c.1.1.2.1.2.2 0 0-.1.1-.2.2l-8.9 5.2c-.3-1.5-1.3-3.6-4.5-5.5-.8-.5-1.8-.9-2.8-1.3v0l0-7.2c0-.1 0-.2-.1-.2l-1.9-1.1c-.1 0-.2 0-.3 0l-1.9 1.1c-.1 0-.1.1-.1.2l0 7.9v0c-.3-.1-.6-.1-1-.2v-2.5c0-.1 0-.2-.1-.2l-1.9-1.1c-.1 0-.2 0-.3 0L36 35.7c0 0-.1.1-.1.1 0 0 0 .1 0 .1v.7c-3.4.2-6.6 1.1-9.1 2.5-2.9 1.7-4.5 3.9-4.5 6.4v0l0 2.9C22.3 50.9 23.9 53.1 26.9 54.8zM25.8 46.3c.5-2.2 2.6-3.6 4.7-4.6v0l0 7.9c0 .1 0 .2.1.2l1.9 1.1c0 0 .1 0 .1 0 0 0 .1 0 .1 0l1.9-1.1c.1-.1.1-.1.1-.2l0-8.4c0-.1-.1-.2-.1-.2l-.5-.3c.5-.1 1.1-.2 1.6-.2l0 6.1c0 .1 0 .2.1.2l1.9 1.1c0 0 .1 0 .1 0s.1 0 .1 0l1.9-1.1c.1 0 .1-.1.1-.2l0-6c.3.1.7.1 1 .2l0 2.8c0 .1 0 .2.1.2l1.9 1.1c0 0 .1 0 .1 0 0 0 .1 0 .1 0l1.9-1.1c.1 0 .1-.1.1-.2v-1.4c1.8.8 3.5 2.3 3.9 4.2-.4 1.7-1.8 3-3.3 3.9-2.3 1.3-5.3 2-8.5 2s-6.2-.7-8.5-2c-1.3-.7-2.7-1.9-3.2-3.3v0C25.9 46.7 25.9 46.5 25.8 46.3zM32.7 42l-1.4-.8 1.4-.8.7.4c0 0 0 0 .1.1 0 0 0 0 0 0l.6.4L32.7 42zM34.3 41.6l0 7.9-1.4.8 0-7.9L34.3 41.6zM32.4 42.4l0 7.9L31 49.5l0-7.9.5.3L32.4 42.4zM33.5 40.2L33.5 40.2l-.7-.4c-.1 0-.2 0-.3 0l-1.9 1.1c0 0 0 0 0 0v0c-.1 0-.1.1-.1.2 0 0 0 0 0 0-1.9.8-3.8 2-4.8 3.8.5-3.9 6.1-5.8 10.1-6.2v1.2C35.1 40 34.3 40.1 33.5 40.2zM36.3 46.4C36.3 46.4 36.3 46.4 36.3 46.4c0-.1 0-.1 0-.1C36.3 46.3 36.3 46.3 36.3 46.4c0-.4 0-2.4 0-10.1l1.4.8 0 10.1L36.3 46.4 36.3 46.4zM38 36.7l-1.4-.8 1.4-.8 1.4.8L38 36.7zM39.7 36.3c0 2.4 0-3.2 0 10.1l-1.4.8 0-10.1L39.7 36.3zM40.2 40v-1.1c.3 0 .7.1 1 .1v1.1C40.8 40.1 40.5 40.1 40.2 40zM41.7 31.2C41.7 31.1 41.7 31.1 41.7 31.2 41.7 31.1 41.7 31.1 41.7 31.2 41.7 31.1 41.7 31.1 41.7 31.2 41.7 31.1 41.7 31.1 41.7 31.2 41.7 31.1 41.7 31.1 41.7 31.2 41.7 31.1 41.7 31.1 41.7 31.2c0-.1 0-.1 0-.1l1.4.8 0 12.3-1.4-.8C41.7 34.5 41.7 31.9 41.7 31.2 41.7 31.2 41.7 31.2 41.7 31.2 41.7 31.2 41.7 31.2 41.7 31.2 41.7 31.2 41.7 31.2 41.7 31.2 41.7 31.2 41.7 31.2 41.7 31.2zM43.3 31.4L43.3 31.4l-1.4-.8 1.4-.8 1.4.8L43.3 31.4zM45 31l0 12.3-1.4.8 0-12.3L45 31zM45.4 41.5v-1.1c1.9 1 3.7 2.5 4 4.6C48.6 43.4 47 42.3 45.4 41.5zM26.4 62.1c-1 .6-2.7.6-3.7 0L2.4 50.3c-.5-.3-.7-.6-.7-.9 0-.3.3-.7.7-.9l38.1-22.1c.5-.3 1.1-.4 1.8-.4.7 0 1.4.2 1.9.4l20.3 11.7c.5.3.7.6.7.9 0 .3-.2.7-.7.9l-11.6 6.8c-.1-.2.1-.8 0-1.7l9.1-5.3c.3-.2.4-.4.4-.6 0-.3-.1-.5-.4-.6l-6.2-3.6c-.5-.3-1.2-.3-1.6 0-.3.2-.9.2-1.1 0l-2.5-1.5c-.1-.1-.2-.2-.2-.2 0-.1.1-.1.2-.2.3-.2.4-.4.4-.6s-.2-.5-.4-.6L43 27.6c-.4-.3-1.2-.3-1.6 0l-34 19.8C7 47.5 6.9 47.8 6.9 48c0 .2.2.5.4.6l18.9 10.9c.2.1.5.2.8.2s.6-.1.8-.2l4.6-2.7c.7.1 1.5.3 2.2.4L26.4 62.1zM37.6 56.9c-4 0-7.7-.9-10.5-2.5-5-2.9-4.2-6.4-4.3-6.6 0 0 0-.1.2.4 0 0 0 0 0 0 2.2 4.2 8.7 5.5 8.8 5.6.1 0 2.3.7 5.8.7 4.1 0 7.9-.9 10.7-2.6 1.3-.7 3.2-2.3 3.9-3.9-.1.9-.8 2.5-1.8 3.9l-.6-.3c-.1 0-.2 0-.2 0l-1.9 1.1v0c-.1 0-.1.1-.1.2v1.2c0 .1 0 .2.1.2l.2.1C45.2 56 41.5 56.9 37.6 56.9zM49.2 54.1c-.2.1-.1.3-.1.4-1.1-.6-.5-.3-.9-.5v-.6c.1 0 1.4.6 1.3.6C49.4 54 49.1 54.1 49.2 54.1zM61.1 63.5l-11.5-6.6 0-1.9c0 0 0 0 0 0l0-.2 11.3 6.4c1.3.8 3.6.5 4.3-.3l0 1.7C65.2 63.6 62.7 64.4 61.1 63.5zM41.7 31.2C41.7 31.2 41.7 31.2 41.7 31.2 41.7 31.2 41.7 31.2 41.7 31.2 41.7 31.2 41.7 31.2 41.7 31.2zM36.3 46.3C36.3 46.2 36.3 46.2 36.3 46.3 36.3 46.2 36.3 46.2 36.3 46.3zM41.7 31.1C41.7 31.1 41.7 31 41.7 31.1 41.7 31 41.7 31.1 41.7 31.1zM41.7 31.1C41.7 31.1 41.7 31.1 41.7 31.1 41.7 31.1 41.7 31.1 41.7 31.1z"/><g><path fill="#131426" d="M2 41.3c.5.3 2 1.2 2.1 1.2.4.2.9.1 1.3-.1l27.9-16.1c.9-.5 1.5-1.7 1.5-2.7l0-20.3c0-.6-.2-1.1-.6-1.2l-2-1.2c-.4-.2-.8-.2-1.3.1L2.9 17.1c-.9.5-1.6 1.7-1.6 2.7l.1 20.3C1.4 40.7 1.6 41.1 2 41.3zM3.2 17.8L31.2 1.7c.3-.1.5-.2.6-.1l2 1.2C33.9 2.8 34 3 34 3.3l0 20.3c0 .7-.5 1.7-1.2 2L5 41.7c-.5.3-.6.1-.8 0l-1.9-1.1c-.2-.1-.2-.4-.2-.6L2.1 19.8C2.1 19.1 2.6 18.1 3.2 17.8zM65.9 59.9L65.9 59.9c0-.6-.3-1.1-1-1.5l-11.6-6.7c-.2-.1-.3-.1-.5 0L52 52.2l-.5-.3c.3-.3.5-.6.7-.9 0 0 0 0 0 0l12.7-7.4c.6-.4 1-.9 1-1.5l0-3.1c0-.6-.4-1.1-1-1.5L44.5 25.8c-1.2-.7-3.2-.7-4.3 0L2.1 47.9c-.6.4-1 .9-1 1.5v3.1c0 .6.4 1.1 1 1.5l20.3 11.8c.6.3 1.3.5 2.2.5.8 0 1.6-.2 2.2-.5l14.2-8.2c0 0 0 0 0 0h0c2.7-.3 5.2-1.1 7.2-2.2.1-.1.2-.2.2-.3l.5.3 0 1.8c0 .2.1.3.3.4l11.6 6.7c1.1.7 3 .7 4.2 0 .6-.4 1-.9 1-1.5L65.9 59.9zM36.4 36c.1-.1 1.7-1 1.6-.9.1.1 1.8 1 1.7.9 0 1.1 0-3.8 0 10.4l-1.7 1-1.7-1C36.3 45.3 36.3 50.2 36.4 36zM41.7 30.7l1.7-1 1.7 1c0 .1 0 12.7 0 12.6l-1.7 1-1.7-1C41.7 31.8 41.7 35.6 41.7 30.7zM64.4 63.3c-.9.5-2.3.5-3.2 0l-11.4-6.5 0-1.8c0-.2-.1-.3-.2-.4l-1.4-.8c-.1-.1-.3-.1-.5 0-.2.1-.3.3-.3.4v.4c-2.9 1.5-6.5 2.2-9.8 2.2-3.9 0-7.6-.9-10.4-2.5-2.7-1.6-4.2-3.6-4.2-5.8l0-3c0-2.1 1.5-4.2 4.1-5.7 2.4-1.4 5.4-2.2 8.7-2.4 0 .1 0 9.8 0 9.2 0 .1 0 .2.1.2l1.9 1.1c0 0 .1 0 .1 0 0 0 .1 0 .1 0l1.9-1.1c.1 0 .1-.1.1-.2 0-.1 0-9.2 0-9.1.3 0 .7.1 1 .1l0 6c0 .1 0 .2.1.2l1.9 1.1c0 0 .1 0 .1 0 0 0 .1 0 .1 0l1.9-1.1c.1 0 .1-.1.1-.2l0-4.9c.9.3 1.7.7 2.4 1.1 2.7 1.6 4.2 3.6 4.2 5.8l0 2.2c0 1.4-.6 2.7-1.8 3.9-.1.1-.2.3-.1.4 0 .2.1.3.3.4l1.3.8c.2.1.3.1.5 0l.8-.5 11.4 6.5c.2.1.5.3.5.7V60l0 2.7C64.9 62.8 64.7 63.1 64.4 63.3zM26.4 65.1c-.9.5-2.6.5-3.6 0L2.5 53.3c-.4-.2-.6-.5-.6-.8v-3.1c0-.3.2-.6.6-.8l38.1-22.1c.5-.3 1.1-.4 1.8-.4.7 0 1.3.2 1.8.4l20.3 11.7c.4.2.6.5.6.8l0 3.1c0 .3-.2.6-.6.8l-11.7 6.8 0 0v0c.2-.6.4-1.3.4-2l0-2.3c0-2.5-1.7-4.9-4.7-6.7-.9-.5-1.9-.9-2.9-1.3l0-6.9c0-.1 0-.2-.1-.2l-1.9-1.1c-.1 0-.2 0-.3 0l-1.9 1.1c-.1 0-.1.1-.1.2l0 5.9c-.3 0-.7-.1-1-.1v-.5c0-.1 0-.2-.1-.2l-1.9-1.1c-.1 0-.2 0-.3 0L36 35.7c0 0-.1.1-.1.1 0 0 0 .1 0 .1 0 0 0 0 0 0v.4c-3.5.2-6.7 1.1-9.2 2.6-3 1.7-4.6 4.1-4.6 6.6l0 3c0 2.5 1.7 4.9 4.7 6.6 2.9 1.7 6.8 2.6 10.9 2.6.5 0 1 0 1.5-.1h0L26.4 65.1z"/><path fill="#131426" d="M32.8,39.8c-0.1,0-0.2,0-0.3,0l-1.9,1.1c-0.1,0-0.1,0.1-0.1,0.2l0,8.4c0,0.1,0,0.2,0.1,0.2l1.9,1.1
			c0,0,0.1,0,0.1,0c0,0,0.1,0,0.1,0l1.9-1.1c0.1-0.1,0.1-0.1,0.1-0.2l0-8.4c0-0.1,0-0.2-0.1-0.2L32.8,39.8z M34.3,49.5l-1.7,1
			l-1.7-1l0-8.2l1.6-1l1.7,0.9L34.3,49.5z"/></g></svg>