<svg xmlns="http://www.w3.org/2000/svg" data-name="Layer 1" viewBox="0 0 64 64"><polygon fill="#41ead4" points="12 25.59 12 27 18 34 60 34 60 2 12 2 12 16.41 12 25.59"/><path fill="#ffbf69" d="M16,41v9H4V41l-2-.971v-8.15A4.88,4.88,0,0,1,6.879,27H17l7.772-3.533A2.283,2.283,0,0,1,28,25.545h0a2.284,2.284,0,0,1-1.133,1.973L18,32.686v7.343Z"/><circle cx="10" cy="21" r="5" fill="#ffbf69"/><rect width="18" height="2" x="39" y="8" fill="#247ba0"/><rect width="26" height="2" x="31" y="14" fill="#247ba0"/><rect width="26" height="2" x="31" y="21" fill="#247ba0"/><rect width="26" height="2" x="31" y="28" fill="#247ba0"/><path fill="#4f5d75" d="M40,62H22V60.8A6.8,6.8,0,0,1,28.8,54H33.2A6.8,6.8,0,0,1,40,60.8Z"/><circle cx="31" cy="49" r="4" fill="#4f5d75"/><path fill="#ffbf69" d="M62,62H44V60.8A6.8,6.8,0,0,1,50.8,54H55.2A6.8,6.8,0,0,1,62,60.8Z"/><circle cx="53" cy="49" r="4" fill="#ffbf69"/></svg>